<?xml version="1.0" encoding="utf-8"?>
<!-- Generator: Adobe Illustrator 25.2.3, SVG Export Plug-In . SVG Version: 6.00 Build 0)  -->
<svg version="1.1" id="Layer_1" xmlns="http://www.w3.org/2000/svg" xmlns:xlink="http://www.w3.org/1999/xlink" x="0px" y="0px"
	 viewBox="0 0 134 129" style="enable-background:new 0 0 134 129;" xml:space="preserve">
<style type="text/css">
	.st0{fill:#FFFFFF;stroke:#000000;stroke-width:5;stroke-miterlimit:10;}
	.st1{fill:none;stroke:#000000;stroke-width:3;stroke-linecap:round;stroke-linejoin:round;}
	.st2{fill:#B90005;stroke:#000000;stroke-miterlimit:10;}
</style>
<ellipse class="st0" cx="67" cy="64.5" rx="64.5" ry="62"/>
<g id="Group_141">
	<path id="Path_30" class="st1" d="M67.5,91.4h-9.6c0.7,5.4,5.5,9.2,10.8,8.5c4.4-0.6,7.8-4.1,8.4-8.5H67.5z"/>
	<path id="Path_31" class="st1" d="M86.4,70c0-4.7-0.1-7.1-0.1-10.3c0-14.3-11-21.4-18.8-21.4s-18.8,7.1-18.8,21.4
		c0,3.2-0.1,5.6-0.1,10.3c0,6.7-7.6,10.6-7.6,18.2l0,0c0,3.3,2.5,3.2,5.6,3.2h41.9c3.1,0,5.6,0.1,5.6-3.2l0,0
		C94,80.6,86.4,76.7,86.4,70L86.4,70z"/>
	<ellipse id="Ellipse_11" class="st1" cx="67.5" cy="32.8" rx="5.2" ry="5.5"/>
</g>
<circle class="st2" cx="21.9" cy="108.1" r="16.6"/>
</svg>
